<svg width="147" height="43" viewBox="0 0 147 43" fill="none" xmlns="http://www.w3.org/2000/svg">
<path d="M0 20C0 8.9543 8.9543 0 20 0H43.3475C54.3932 0 63.3475 8.95431 63.3475 20V23C63.3475 34.0457 54.3932 43 43.3475 43H0V20Z" fill="#151414"/>
<path d="M0 20C0 8.9543 8.95431 0 20 0H146.966V23C146.966 34.0457 138.012 43 126.966 43H0V20Z" fill="#151414" fill-opacity="0.8"/>
<path d="M24.5298 30L27.4276 12.5455H38.2514L37.8764 14.8125H29.6861L28.7997 20.1307H36.2145L35.8395 22.3892H28.4247L27.1634 30H24.5298ZM44.1236 12.5455L41.2259 30H38.5923L41.4901 12.5455H44.1236ZM62.0469 12.5455L59.1491 30H56.7287L49.9872 17.1989H49.8338L47.6946 30H45.0611L47.9588 12.5455H50.3963L57.1463 25.3636H57.3082L59.4389 12.5455H62.0469Z" fill="#DD7878"/>
<path d="M67.8232 30H62.7095L68.4709 12.5455H74.9482L80.7095 30H75.5959L71.7777 17.3523H71.6413L67.8232 30ZM66.8686 23.1136H76.4822V26.6591H66.8686V23.1136ZM97.4929 12.5455V30H93.5384L87.2315 20.8295H87.1293V30H82.3906V12.5455H86.4134L92.6179 21.6818H92.7543V12.5455H97.4929ZM99.8026 30V27.375L108.053 16.3636H99.8366V12.5455H114.087V15.1705L105.837 26.1818H114.053V30H99.8026ZM116.398 30V12.5455H128.978V16.3636H121.137V19.3636H128.33V23.1818H121.137V26.1818H128.944V30H116.398Z" fill="#CFEBF3"/>
</svg>
